<svg width="24" height="24" viewBox="0 0 24 24" fill="none" xmlns="http://www.w3.org/2000/svg">
<path d="M19.2 3.2H4.80001C3.91601 3.2 3.20001 3.916 3.20001 4.8V19.2C3.20001 20.084 3.91601 20.8 4.80001 20.8H19.2C20.084 20.8 20.8 20.084 20.8 19.2V4.8C20.8 3.916 20.084 3.2 19.2 3.2ZM8.76321 17.6H6.40321V10.0064H8.76321V17.6ZM7.55921 8.9208C6.79841 8.9208 6.18321 8.304 6.18321 7.5448C6.18321 6.7856 6.79921 6.1696 7.55921 6.1696C8.31761 6.1696 8.93441 6.7864 8.93441 7.5448C8.93441 8.304 8.31761 8.9208 7.55921 8.9208ZM17.6032 17.6H15.2448V13.9072C15.2448 13.0264 15.2288 11.8936 14.0184 11.8936C12.7904 11.8936 12.6016 12.8528 12.6016 13.8432V17.6H10.2432V10.0064H12.5072V11.044H12.5392C12.8544 10.4472 13.624 9.8176 14.772 9.8176C17.1616 9.8176 17.6032 11.3904 17.6032 13.4352V17.6Z" fill="black"/>
</svg>
