<svg width="24" height="24" viewBox="0 0 24 24" fill="none" xmlns="http://www.w3.org/2000/svg">
<path d="M21.5513 6.96C21.36 5.90437 20.4488 5.13562 19.3913 4.89562C17.8088 4.56 14.88 4.32 11.7113 4.32C8.54438 4.32 5.56875 4.56 3.98438 4.89562C2.92875 5.13562 2.01563 5.85562 1.82438 6.96C1.63125 8.16 1.44 9.84 1.44 12C1.44 14.16 1.63125 15.84 1.87125 17.04C2.06438 18.0956 2.97563 18.8644 4.03125 19.1044C5.71125 19.44 8.59125 19.68 11.76 19.68C14.9288 19.68 17.8088 19.44 19.4888 19.1044C20.5444 18.8644 21.4556 18.1444 21.6488 17.04C21.84 15.84 22.08 14.1113 22.1288 12C22.0313 9.84 21.7913 8.16 21.5513 6.96ZM9.12 15.36V8.64L14.9756 12L9.12 15.36Z" fill="black"/>
</svg>
