<svg width="24" height="24" viewBox="0 0 24 24" fill="none" xmlns="http://www.w3.org/2000/svg">
<path d="M19.68 1.92H4.32001C2.99521 1.92 1.92001 2.9952 1.92001 4.32V19.68C1.92001 21.0048 2.99521 22.08 4.32001 22.08H19.68C21.0048 22.08 22.08 21.0048 22.08 19.68V4.32C22.08 2.9952 21.0048 1.92 19.68 1.92ZM17.76 9.12H16.8C15.7728 9.12 15.36 9.36 15.36 10.08V11.52H17.76L17.28 13.92H15.36V21.12H12.96V13.92H11.04V11.52H12.96V10.08C12.96 8.16 13.92 6.72 15.84 6.72C17.232 6.72 17.76 7.2 17.76 7.2V9.12Z" fill="black"/>
</svg>
